<svg width="159" height="48" viewBox="0 0 159 48" fill="none" xmlns="http://www.w3.org/2000/svg">
<g filter="url(#filter0_d_1_186)">
<rect x="4" y="3" width="39.4337" height="39.4337" rx="10.1984" fill="#2985F9"/>
<rect x="4.50992" y="3.50992" width="38.4138" height="38.4138" rx="9.68845" stroke="#3978E2" stroke-width="1.01984"/>
</g>
<rect x="6.37699" y="5.37964" width="34.6744" height="34.6744" rx="8.15869" fill="url(#paint0_linear_1_186)"/>
<g filter="url(#filter1_d_1_186)">
<path d="M30.9868 24.1612H26.4072C23.9419 24.1612 21.9359 22.1696 21.9359 19.7031V19.6877V15.122L16.2549 9.41951L16.2549 19.6877C16.2702 25.2949 20.8028 29.845 26.4072 29.845L36.6804 29.845L30.9868 24.1612Z" fill="url(#paint1_linear_1_186)"/>
</g>
<g filter="url(#filter2_d_1_186)">
<path d="M28.0697 28.2463H23.4902C21.0249 28.2463 19.0189 26.2547 19.0189 23.7881V23.7728V19.2071L13.3379 13.5046V23.7728C13.3532 29.38 17.8858 33.9301 23.4902 33.9301H33.7634L28.0697 28.2463Z" fill="url(#paint2_linear_1_186)"/>
</g>
<path d="M56.4708 26.799H61.4222V29.7168H52.6909V14.1994H56.4708V26.799ZM74.7195 23.3507C74.7195 23.7044 74.6974 24.0728 74.6532 24.4559H66.0987C66.1577 25.2222 66.4008 25.8117 66.8282 26.2243C67.2703 26.6222 67.8082 26.8211 68.4418 26.8211C69.385 26.8211 70.0407 26.4232 70.4091 25.6275H74.4322C74.2259 26.438 73.8501 27.1674 73.3048 27.8158C72.7743 28.4642 72.1038 28.9726 71.2933 29.341C70.4828 29.7095 69.5765 29.8937 68.5745 29.8937C67.3661 29.8937 66.2903 29.6358 65.3472 29.12C64.404 28.6042 63.6672 27.8674 63.1367 26.9095C62.6062 25.9517 62.3409 24.8317 62.3409 23.5496C62.3409 22.2676 62.5988 21.1476 63.1146 20.1897C63.6451 19.2319 64.3819 18.495 65.3251 17.9793C66.2682 17.4635 67.3513 17.2056 68.5745 17.2056C69.7681 17.2056 70.8291 17.4561 71.7575 17.9572C72.6859 18.4582 73.408 19.1729 73.9238 20.1013C74.4543 21.0297 74.7195 22.1128 74.7195 23.3507ZM70.8512 22.356C70.8512 21.7076 70.6302 21.1918 70.1881 20.8087C69.746 20.4255 69.1934 20.2339 68.5302 20.2339C67.8966 20.2339 67.3587 20.4181 66.9166 20.7866C66.4892 21.155 66.224 21.6781 66.1208 22.356H70.8512ZM75.8294 23.5275C75.8294 22.2602 76.0652 21.1476 76.5368 20.1897C77.0231 19.2319 77.6789 18.495 78.5041 17.9793C79.3293 17.4635 80.2504 17.2056 81.2672 17.2056C82.1366 17.2056 82.8955 17.3824 83.544 17.7361C84.2071 18.0898 84.7155 18.554 85.0692 19.1287V17.3824H88.8491V29.7168H85.0692V27.9706C84.7008 28.5453 84.185 29.0095 83.5218 29.3632C82.8734 29.7168 82.1145 29.8937 81.2451 29.8937C80.243 29.8937 79.3293 29.6358 78.5041 29.12C77.6789 28.5895 77.0231 27.8453 76.5368 26.8874C76.0652 25.9148 75.8294 24.7949 75.8294 23.5275ZM85.0692 23.5496C85.0692 22.6065 84.8039 21.8623 84.2734 21.3171C83.7576 20.7718 83.124 20.4992 82.3724 20.4992C81.6208 20.4992 80.9798 20.7718 80.4493 21.3171C79.9335 21.8476 79.6756 22.5844 79.6756 23.5275C79.6756 24.4707 79.9335 25.2222 80.4493 25.7822C80.9798 26.3275 81.6208 26.6001 82.3724 26.6001C83.124 26.6001 83.7576 26.3275 84.2734 25.7822C84.8039 25.237 85.0692 24.4928 85.0692 23.5496ZM90.6995 23.5275C90.6995 22.2602 90.9352 21.1476 91.4068 20.1897C91.8931 19.2319 92.5489 18.495 93.3741 17.9793C94.1994 17.4635 95.1204 17.2056 96.1372 17.2056C96.9477 17.2056 97.6845 17.3751 98.3477 17.714C99.0255 18.0529 99.5561 18.5098 99.9392 19.0845V13.3594H103.719V29.7168H99.9392V27.9485C99.5855 28.5379 99.0771 29.0095 98.414 29.3632C97.7656 29.7168 97.0067 29.8937 96.1372 29.8937C95.1204 29.8937 94.1994 29.6358 93.3741 29.12C92.5489 28.5895 91.8931 27.8453 91.4068 26.8874C90.9352 25.9148 90.6995 24.7949 90.6995 23.5275ZM99.9392 23.5496C99.9392 22.6065 99.6739 21.8623 99.1434 21.3171C98.6277 20.7718 97.994 20.4992 97.2424 20.4992C96.4909 20.4992 95.8498 20.7718 95.3193 21.3171C94.8036 21.8476 94.5457 22.5844 94.5457 23.5275C94.5457 24.4707 94.8036 25.2222 95.3193 25.7822C95.8498 26.3275 96.4909 26.6001 97.2424 26.6001C97.994 26.6001 98.6277 26.3275 99.1434 25.7822C99.6739 25.237 99.9392 24.4928 99.9392 23.5496ZM110.101 26.799H115.052V29.7168H106.321V14.1994H110.101V26.799ZM115.971 23.5275C115.971 22.2602 116.207 21.1476 116.678 20.1897C117.165 19.2319 117.821 18.495 118.646 17.9793C119.471 17.4635 120.392 17.2056 121.409 17.2056C122.278 17.2056 123.037 17.3824 123.686 17.7361C124.349 18.0898 124.857 18.554 125.211 19.1287V17.3824H128.991V29.7168H125.211V27.9706C124.842 28.5453 124.327 29.0095 123.664 29.3632C123.015 29.7168 122.256 29.8937 121.387 29.8937C120.385 29.8937 119.471 29.6358 118.646 29.12C117.821 28.5895 117.165 27.8453 116.678 26.8874C116.207 25.9148 115.971 24.7949 115.971 23.5275ZM125.211 23.5496C125.211 22.6065 124.946 21.8623 124.415 21.3171C123.899 20.7718 123.266 20.4992 122.514 20.4992C121.763 20.4992 121.121 20.7718 120.591 21.3171C120.075 21.8476 119.817 22.5844 119.817 23.5275C119.817 24.4707 120.075 25.2222 120.591 25.7822C121.121 26.3275 121.763 26.6001 122.514 26.6001C123.266 26.6001 123.899 26.3275 124.415 25.7822C124.946 25.237 125.211 24.4928 125.211 23.5496ZM139.13 29.7168L135.373 24.5443V29.7168H131.593V13.3594H135.373V22.4002L139.108 17.3824H143.772L138.644 23.5717L143.817 29.7168H139.13ZM156.751 23.3507C156.751 23.7044 156.729 24.0728 156.685 24.4559H148.131C148.19 25.2222 148.433 25.8117 148.86 26.2243C149.302 26.6222 149.84 26.8211 150.474 26.8211C151.417 26.8211 152.073 26.4232 152.441 25.6275H156.464C156.258 26.438 155.882 27.1674 155.337 27.8158C154.806 28.4642 154.136 28.9726 153.325 29.341C152.515 29.7095 151.608 29.8937 150.606 29.8937C149.398 29.8937 148.322 29.6358 147.379 29.12C146.436 28.6042 145.699 27.8674 145.169 26.9095C144.638 25.9517 144.373 24.8317 144.373 23.5496C144.373 22.2676 144.631 21.1476 145.146 20.1897C145.677 19.2319 146.414 18.495 147.357 17.9793C148.3 17.4635 149.383 17.2056 150.606 17.2056C151.8 17.2056 152.861 17.4561 153.789 17.9572C154.718 18.4582 155.44 19.1729 155.956 20.1013C156.486 21.0297 156.751 22.1128 156.751 23.3507ZM152.883 22.356C152.883 21.7076 152.662 21.1918 152.22 20.8087C151.778 20.4255 151.225 20.2339 150.562 20.2339C149.928 20.2339 149.391 20.4181 148.948 20.7866C148.521 21.155 148.256 21.6781 148.153 22.356H152.883Z" fill="black"/>
<defs>
<filter id="filter0_d_1_186" x="0.600545" y="0.960327" width="46.2326" height="46.2326" filterUnits="userSpaceOnUse" color-interpolation-filters="sRGB">
<feFlood flood-opacity="0" result="BackgroundImageFix"/>
<feColorMatrix in="SourceAlpha" type="matrix" values="0 0 0 0 0 0 0 0 0 0 0 0 0 0 0 0 0 0 127 0" result="hardAlpha"/>
<feOffset dy="1.35978"/>
<feGaussianBlur stdDeviation="1.69973"/>
<feComposite in2="hardAlpha" operator="out"/>
<feColorMatrix type="matrix" values="0 0 0 0 0 0 0 0 0 0 0 0 0 0 0 0 0 0 0.18 0"/>
<feBlend mode="normal" in2="BackgroundImageFix" result="effect1_dropShadow_1_186"/>
<feBlend mode="normal" in="SourceGraphic" in2="effect1_dropShadow_1_186" result="shape"/>
</filter>
<filter id="filter1_d_1_186" x="14.7735" y="8.14977" width="23.3882" height="23.3882" filterUnits="userSpaceOnUse" color-interpolation-filters="sRGB">
<feFlood flood-opacity="0" result="BackgroundImageFix"/>
<feColorMatrix in="SourceAlpha" type="matrix" values="0 0 0 0 0 0 0 0 0 0 0 0 0 0 0 0 0 0 127 0" result="hardAlpha"/>
<feOffset dy="0.211621"/>
<feGaussianBlur stdDeviation="0.740674"/>
<feComposite in2="hardAlpha" operator="out"/>
<feColorMatrix type="matrix" values="0 0 0 0 0 0 0 0 0 0 0 0 0 0 0 0 0 0 0.25 0"/>
<feBlend mode="normal" in2="BackgroundImageFix" result="effect1_dropShadow_1_186"/>
<feBlend mode="normal" in="SourceGraphic" in2="effect1_dropShadow_1_186" result="shape"/>
</filter>
<filter id="filter2_d_1_186" x="11.8565" y="12.2348" width="23.3882" height="23.3882" filterUnits="userSpaceOnUse" color-interpolation-filters="sRGB">
<feFlood flood-opacity="0" result="BackgroundImageFix"/>
<feColorMatrix in="SourceAlpha" type="matrix" values="0 0 0 0 0 0 0 0 0 0 0 0 0 0 0 0 0 0 127 0" result="hardAlpha"/>
<feOffset dy="0.211621"/>
<feGaussianBlur stdDeviation="0.740674"/>
<feComposite in2="hardAlpha" operator="out"/>
<feColorMatrix type="matrix" values="0 0 0 0 0 0 0 0 0 0 0 0 0 0 0 0 0 0 0.25 0"/>
<feBlend mode="normal" in2="BackgroundImageFix" result="effect1_dropShadow_1_186"/>
<feBlend mode="normal" in="SourceGraphic" in2="effect1_dropShadow_1_186" result="shape"/>
</filter>
<linearGradient id="paint0_linear_1_186" x1="35.9522" y1="32.2353" x2="12.1561" y2="10.4788" gradientUnits="userSpaceOnUse">
<stop stop-color="#2985F9"/>
<stop offset="1" stop-color="#1565EC"/>
</linearGradient>
<linearGradient id="paint1_linear_1_186" x1="26.4676" y1="9.41951" x2="26.4676" y2="29.845" gradientUnits="userSpaceOnUse">
<stop stop-color="#DFEDFF"/>
<stop offset="1" stop-color="#8ABDFF"/>
</linearGradient>
<linearGradient id="paint2_linear_1_186" x1="23.5506" y1="13.5046" x2="23.5506" y2="33.9301" gradientUnits="userSpaceOnUse">
<stop stop-color="#DFEDFF"/>
<stop offset="1" stop-color="#8ABDFF"/>
</linearGradient>
</defs>
</svg>
