<svg width="326" height="97" viewBox="0 0 326 97" fill="none" xmlns="http://www.w3.org/2000/svg">
<path d="M69.2839 58.0413L51.3995 58.0413C41.7716 58.0413 33.9376 50.2634 33.9376 40.6308V40.571L33.9376 22.7406L11.7515 0.470426L11.7515 40.571C11.8113 62.4688 29.5124 80.2383 51.3995 80.2383L91.5193 80.2383L69.2839 58.0413Z" fill="url(#paint0_linear_20_556)"/>
<path d="M57.8857 73.9951H40.0013C30.3734 73.9951 22.5394 66.2172 22.5394 56.5845V56.5247L22.5394 38.6943L0.353271 16.4242L0.353271 56.5247C0.413072 78.4225 18.1142 96.192 40.0013 96.192L80.1211 96.192L57.8857 73.9951Z" fill="url(#paint1_linear_20_556)"/>
<path d="M66.184 67.0343H44.4274L40.9397 77.3313H26.0755L47.1677 19.0369H63.6097L84.702 77.3313H69.6717L66.184 67.0343ZM62.5302 56.073L55.3057 34.7316L48.1642 56.073H62.5302ZM95.6886 19.0369V77.3313H81.4887V19.0369H95.6886ZM125.403 77.9126C121.141 77.9126 117.321 77.2206 113.944 75.8366C110.567 74.4526 107.854 72.4042 105.806 69.6916C103.813 66.9789 102.761 63.7127 102.65 59.8928H117.764C117.985 62.0519 118.733 63.7127 120.006 64.8752C121.279 65.9824 122.94 66.536 124.988 66.536C127.092 66.536 128.753 66.0655 129.971 65.1244C131.189 64.1279 131.798 62.7715 131.798 61.0554C131.798 59.616 131.299 58.4258 130.303 57.4846C129.362 56.5435 128.171 55.7685 126.732 55.1595C125.348 54.5505 123.355 53.8585 120.753 53.0835C116.989 51.9209 113.916 50.7584 111.536 49.5958C109.155 48.4332 107.107 46.7171 105.391 44.4473C103.675 42.1775 102.816 39.2158 102.816 35.562C102.816 30.1367 104.782 25.9016 108.712 22.8568C112.643 19.7566 117.764 18.2065 124.075 18.2065C130.497 18.2065 135.673 19.7566 139.603 22.8568C143.534 25.9016 145.638 30.1644 145.914 35.645H130.552C130.441 33.7628 129.749 32.2957 128.476 31.2439C127.203 30.1367 125.57 29.5831 123.577 29.5831C121.86 29.5831 120.476 30.0536 119.425 30.9948C118.373 31.8805 117.847 33.1815 117.847 34.8977C117.847 36.7799 118.733 38.2469 120.504 39.2988C122.276 40.3506 125.044 41.4855 128.808 42.7035C132.573 43.9767 135.617 45.1947 137.943 46.3572C140.323 47.5198 142.371 49.2083 144.088 51.4227C145.804 53.6371 146.662 56.4882 146.662 59.9759C146.662 63.2975 145.804 66.3146 144.088 69.0273C142.427 71.7399 139.991 73.899 136.78 75.5044C133.569 77.1099 129.777 77.9126 125.403 77.9126ZM171.593 65.2904V77.3313H164.369C159.22 77.3313 155.207 76.0857 152.328 73.5945C149.449 71.0479 148.01 66.9236 148.01 61.2215V42.7865H142.363V30.9948H148.01V19.7013H162.21V30.9948H171.51V42.7865H162.21V61.3875C162.21 62.7715 162.542 63.768 163.206 64.377C163.871 64.986 164.978 65.2904 166.528 65.2904H171.593ZM215.626 30.9948V77.3313H201.426V71.0202C199.986 73.0686 198.021 74.7294 195.53 76.0027C193.094 77.2206 190.381 77.8295 187.392 77.8295C183.849 77.8295 180.721 77.0545 178.008 75.5044C175.296 73.899 173.192 71.6015 171.697 68.6121C170.202 65.6226 169.455 62.1072 169.455 58.0659V30.9948H183.572V56.156C183.572 59.2562 184.375 61.6643 185.98 63.3805C187.586 65.0967 189.745 65.9548 192.457 65.9548C195.225 65.9548 197.412 65.0967 199.017 63.3805C200.623 61.6643 201.426 59.2562 201.426 56.156V30.9948H215.626ZM213.369 54.08C213.369 49.319 214.255 45.1393 216.026 41.5409C217.853 37.9425 220.317 35.1745 223.417 33.2368C226.517 31.2992 229.977 30.3304 233.797 30.3304C236.842 30.3304 239.61 30.9671 242.101 32.2404C244.648 33.5136 246.641 35.2298 248.08 37.3889V15.8814H262.28V77.3313H248.08V70.6881C246.751 72.9025 244.842 74.674 242.35 76.0027C239.914 77.3313 237.063 77.9956 233.797 77.9956C229.977 77.9956 226.517 77.0268 223.417 75.0892C220.317 73.0962 217.853 70.3005 216.026 66.7021C214.255 63.0483 213.369 58.841 213.369 54.08ZM248.08 54.163C248.08 50.62 247.084 47.8243 245.091 45.7759C243.153 43.7276 240.773 42.7035 237.949 42.7035C235.126 42.7035 232.718 43.7276 230.725 45.7759C228.787 47.7689 227.818 50.5369 227.818 54.08C227.818 57.623 228.787 60.4464 230.725 62.5501C232.718 64.5984 235.126 65.6226 237.949 65.6226C240.773 65.6226 243.153 64.5984 245.091 62.5501C247.084 60.5018 248.08 57.7061 248.08 54.163ZM270.062 26.1784C267.571 26.1784 265.522 25.4587 263.917 24.0194C262.367 22.5246 261.592 20.6977 261.592 18.5387C261.592 16.3243 262.367 14.4974 263.917 13.058C265.522 11.5633 267.571 10.8159 270.062 10.8159C272.498 10.8159 274.491 11.5633 276.041 13.058C277.646 14.4974 278.449 16.3243 278.449 18.5387C278.449 20.6977 277.646 22.5246 276.041 24.0194C274.491 25.4587 272.498 26.1784 270.062 26.1784ZM277.12 30.9948V77.3313H262.92V30.9948H277.12ZM298.87 77.9956C294.331 77.9956 290.234 77.0268 286.58 75.0892C282.982 73.1516 280.131 70.3836 278.027 66.7852C275.979 63.1868 274.955 58.9794 274.955 54.163C274.955 49.402 276.007 45.2223 278.11 41.6239C280.214 37.9701 283.093 35.1745 286.746 33.2368C290.4 31.2992 294.497 30.3304 299.036 30.3304C303.576 30.3304 307.673 31.2992 311.326 33.2368C314.98 35.1745 317.859 37.9701 319.963 41.6239C322.066 45.2223 323.118 49.402 323.118 54.163C323.118 58.924 322.039 63.1314 319.88 66.7852C317.776 70.3836 314.869 73.1516 311.16 75.0892C307.507 77.0268 303.41 77.9956 298.87 77.9956ZM298.87 65.7056C301.583 65.7056 303.88 64.7092 305.763 62.7162C307.7 60.7232 308.669 57.8722 308.669 54.163C308.669 50.4539 307.728 47.6028 305.846 45.6099C304.019 43.6169 301.749 42.6204 299.036 42.6204C296.268 42.6204 293.971 43.6169 292.144 45.6099C290.317 47.5475 289.404 50.3985 289.404 54.163C289.404 57.8722 290.289 60.7232 292.061 62.7162C293.888 64.7092 296.158 65.7056 298.87 65.7056Z" fill="black"/>
<defs>
<linearGradient id="paint0_linear_20_556" x1="14.0305" y1="7.30767" x2="82.403" y2="76.8197" gradientUnits="userSpaceOnUse">
<stop stop-color="#2985F9"/>
<stop offset="1" stop-color="#2985F9" stop-opacity="0.56"/>
</linearGradient>
<linearGradient id="paint1_linear_20_556" x1="2.63236" y1="20.9823" x2="72.1443" y2="92.7734" gradientUnits="userSpaceOnUse">
<stop stop-color="#1565EC"/>
<stop offset="1" stop-color="#5F94EF"/>
</linearGradient>
</defs>
</svg>
