<svg width="17" height="18" viewBox="0 0 17 18" fill="none" xmlns="http://www.w3.org/2000/svg">
<path d="M2.83341 6.16667V13.9583C2.83341 14.3341 2.98267 14.6944 3.24835 14.9601C3.51402 15.2257 3.87436 15.375 4.25008 15.375H12.7501C13.1258 15.375 13.4861 15.2257 13.7518 14.9601C14.0175 14.6944 14.1667 14.3341 14.1667 13.9583V6.16667M7.08341 9H9.91675M2.12508 2.625H14.8751C15.2663 2.625 15.5834 2.94213 15.5834 3.33333V5.45833C15.5834 5.84953 15.2663 6.16667 14.8751 6.16667H2.12508C1.73388 6.16667 1.41675 5.84953 1.41675 5.45833V3.33333C1.41675 2.94213 1.73388 2.625 2.12508 2.625Z" stroke="url(#paint0_linear_10_64)" stroke-width="1.41667" stroke-linecap="round" stroke-linejoin="round"/>
<defs>
<linearGradient id="paint0_linear_10_64" x1="8.50008" y1="2.625" x2="8.50008" y2="15.375" gradientUnits="userSpaceOnUse">
<stop stop-color="#2985F9"/>
<stop offset="1" stop-color="#1565EC"/>
</linearGradient>
</defs>
</svg>
