<svg width="24" height="24" viewBox="0 0 24 24" fill="none" xmlns="http://www.w3.org/2000/svg">
<path d="M12 21C16.9706 21 21 16.9706 21 12C21 7.02944 16.9706 3 12 3C7.02944 3 3 7.02944 3 12C3 16.9706 7.02944 21 12 21Z" stroke="#868686" stroke-width="1.75" stroke-linecap="round" stroke-linejoin="round"/>
<path d="M9.5 9.5C9.71 8.89 10.1399 8.37 10.6899 8.04C11.2399 7.71 11.88 7.6 12.49 7.72C13.1 7.84 13.65 8.18 14.05 8.69C14.45 9.2 14.67 9.84 14.67 10.5C14.67 12.3 11.92 13.2 11.92 13.2" stroke="#868686" stroke-width="1.75" stroke-linecap="round" stroke-linejoin="round"/>
<path d="M12 16.5H12.01" stroke="#868686" stroke-width="1.75" stroke-linecap="round" stroke-linejoin="round"/>
</svg>
