<svg width="23" height="23" viewBox="0 0 23 23" fill="none" xmlns="http://www.w3.org/2000/svg">
<path fill-rule="evenodd" clip-rule="evenodd" d="M10.7324 2.47922C10.9673 2.34882 11.2314 2.2804 11.5 2.2804C11.7687 2.2804 12.0328 2.34882 12.2677 2.47922L19.1677 6.31255C19.6698 6.59143 19.9813 7.12043 19.9813 7.69543V15.3046C19.9813 15.8796 19.6698 16.4086 19.1677 16.6875L12.2677 20.5208C12.0328 20.6512 11.7687 20.7196 11.5 20.7196C11.2314 20.7196 10.9673 20.6512 10.7324 20.5208L3.83242 16.6875C3.58577 16.5505 3.38025 16.3501 3.23719 16.1069C3.09412 15.8637 3.01872 15.5867 3.0188 15.3046V7.69543C3.0188 7.12043 3.33026 6.59143 3.83242 6.31255L10.7324 2.47922ZM11.57 3.73655C11.5486 3.72464 11.5245 3.71838 11.5 3.71838C11.4756 3.71838 11.4515 3.72464 11.4301 3.73655L4.53009 7.56989C4.50787 7.58227 4.48933 7.60032 4.47636 7.62221C4.4634 7.6441 4.45648 7.66903 4.4563 7.69447V15.3056C4.4563 15.3573 4.48505 15.4052 4.53009 15.4301L11.4301 19.2635C11.4515 19.2754 11.4756 19.2816 11.5 19.2816C11.5245 19.2816 11.5486 19.2754 11.57 19.2635L18.47 15.4301C18.4922 15.4178 18.5108 15.3997 18.5237 15.3778C18.5367 15.3559 18.5436 15.331 18.5438 15.3056V7.69543C18.5438 7.66983 18.5369 7.64469 18.524 7.62262C18.511 7.60055 18.4924 7.58234 18.47 7.56989L11.57 3.73655Z" fill="black" fill-opacity="0.7"/>
<path fill-rule="evenodd" clip-rule="evenodd" d="M6.948 11.5C6.948 10.2927 7.42759 9.13483 8.28127 8.28115C9.13495 7.42747 10.2928 6.94788 11.5001 6.94788C12.7074 6.94788 13.8652 7.42747 14.7189 8.28115C15.5726 9.13483 16.0522 10.2927 16.0522 11.5C16.0522 12.7072 15.5726 13.8651 14.7189 14.7188C13.8652 15.5724 12.7074 16.052 11.5001 16.052C10.2928 16.052 9.13495 15.5724 8.28127 14.7188C7.42759 13.8651 6.948 12.7072 6.948 11.5ZM11.5001 8.38538C10.674 8.38538 9.88184 8.71352 9.29774 9.29762C8.71364 9.88171 8.3855 10.6739 8.3855 11.5C8.3855 12.326 8.71364 13.1182 9.29774 13.7023C9.88184 14.2864 10.674 14.6145 11.5001 14.6145C12.3261 14.6145 13.1183 14.2864 13.7024 13.7023C14.2865 13.1182 14.6147 12.326 14.6147 11.5C14.6147 10.6739 14.2865 9.88171 13.7024 9.29762C13.1183 8.71352 12.3261 8.38538 11.5001 8.38538Z" fill="black" fill-opacity="0.7"/>
</svg>
